<svg width="24" height="24" viewBox="0 0 24 24" fill="none" xmlns="http://www.w3.org/2000/svg">
<path d="M11.4708 11.7422C11.7625 12.0891 12.2375 12.0891 12.5333 11.7422L17.0708 6.3891C18.3875 4.83285 18.3125 2.25472 16.8375 0.820346C15.5542 -0.431216 13.6417 -0.206216 12.4667 1.18128L12 1.72972L11.5375 1.18597C10.3625 -0.206216 8.45 -0.431216 7.16667 0.820346C5.69583 2.25472 5.61667 4.83285 6.93333 6.3891L11.4708 11.7422ZM23.5542 15.3797C23.0625 14.8782 22.2958 14.911 21.7792 15.3797L17.9292 18.8438C17.4583 19.2703 16.8708 19.5 16.2625 19.5H11.3333C10.9667 19.5 10.6667 19.1625 10.6667 18.75C10.6667 18.3375 10.9667 18 11.3333 18H14.5958C15.2583 18 15.875 17.4891 15.9833 16.7532C16.1208 15.8157 15.4792 15 14.6667 15H8C6.875 15 5.7875 15.436 4.9125 16.2328L2.975 18H0.666667C0.3 18 0 18.3375 0 18.75V23.25C0 23.6625 0.3 24 0.666667 24H15.5333C16.1375 24 16.725 23.7703 17.2 23.3438L23.5 17.6719C24.1333 17.1047 24.1833 16.0172 23.5542 15.3797Z" fill="#E1FF3C"/>
</svg>
