<svg width="30" height="30" viewBox="0 0 30 30" fill="none" xmlns="http://www.w3.org/2000/svg">
<path d="M27.1003 3.7191C26.842 3.49604 26.5275 3.34791 26.1911 3.29074C25.8546 3.23357 25.5088 3.26955 25.1913 3.39478L3.56354 11.8914C3.18656 12.0395 2.86768 12.3057 2.65459 12.6502C2.44151 12.9946 2.3457 13.3988 2.38148 13.8022C2.41726 14.2057 2.58272 14.5867 2.8531 14.8883C3.12348 15.1898 3.48424 15.3957 3.8814 15.4752L9.37502 16.5739V23.4357C9.37471 23.8067 9.48449 24.1694 9.69046 24.4779C9.89643 24.7865 10.1893 25.027 10.5321 25.1689C10.8748 25.3109 11.252 25.3479 11.6158 25.2754C11.9796 25.2029 12.3137 25.024 12.5758 24.7615L15.6161 21.7213L20.2304 25.7819C20.5702 26.0836 21.0086 26.2505 21.4629 26.251C21.6604 26.2508 21.8567 26.2197 22.0446 26.1588C22.3544 26.0605 22.6331 25.8827 22.8528 25.6431C23.0725 25.4034 23.2256 25.1104 23.2967 24.7932L27.7045 5.55886C27.7813 5.22626 27.7655 4.879 27.659 4.5547C27.5525 4.23041 27.3593 3.94144 27.1003 3.7191V3.7191ZM10.0953 14.8058L4.24933 13.6366L20.6183 7.20592L10.0953 14.8058ZM11.25 23.4348V17.8792L14.2055 20.48L11.25 23.4348ZM21.469 24.3743L11.8137 15.8775L25.7174 5.83609L21.469 24.3743Z" fill="black"/>
</svg>
