<svg width="30" height="20" viewBox="0 0 30 20" fill="none" xmlns="http://www.w3.org/2000/svg">
<g clip-path="url(#clip0_5_8)">
<path d="M25.884 12.8162C25.74 11.9825 24.9675 11.3325 23.973 11.1388C20.1075 10.3837 19.1385 8.52875 18.975 6.47125C18.2895 6.365 17.07 6.25 15 6.25C12.93 6.25 11.7105 6.365 11.025 6.47125C10.8615 8.52875 9.89248 10.3837 6.02698 11.1388C5.03248 11.3338 4.25998 11.9825 4.11598 12.8162L3.37048 17.1187C3.10798 18.6337 4.44298 20 6.29998 20H23.7C25.5555 20 26.892 18.6337 26.6295 17.1187L25.884 12.8162ZM15 16.865C12.9075 16.865 11.211 15.465 11.211 13.74C11.211 12.015 12.9075 10.615 15 10.615C17.0925 10.615 18.789 12.015 18.789 13.74C18.789 15.465 17.091 16.865 15 16.865ZM29.925 5C29.889 3.125 24.162 0.00125 15 0C5.83648 0.00125 0.109482 3.125 0.074982 5C0.040482 6.875 0.106482 9.315 3.87748 8.90875C8.28898 8.4325 8.01748 7.14875 8.01748 5.31375C8.01748 4.03375 11.6055 3.725 15 3.725C18.3945 3.725 21.981 4.03375 21.9825 5.31375C21.9825 7.14875 21.711 8.4325 26.1225 8.90875C29.892 9.315 29.9595 6.875 29.925 5Z" fill="black"/>
</g>
<defs>
<clipPath id="clip0_5_8">
<rect width="30" height="20" fill="white"/>
</clipPath>
</defs>
</svg>
