<svg width="17" height="17" viewBox="0 0 17 17" fill="none" xmlns="http://www.w3.org/2000/svg">
<path d="M8.01495 0.189734C5.88926 0.189734 3.85047 1.03417 2.34751 2.53724C0.844437 4.04032 0 6.07899 0 8.20468C0 10.3304 0.844437 12.3692 2.34751 13.8721C3.85058 15.3752 5.88926 16.2196 8.01495 16.2196C10.1406 16.2196 12.1794 15.3752 13.6824 13.8721C15.1855 12.369 16.0299 10.3304 16.0299 8.20468C16.0275 6.07972 15.1823 4.04241 13.6798 2.53981C12.1771 1.03728 10.1399 0.192152 8.01491 0.189697L8.01495 0.189734ZM12.7404 5.21451L6.32842 12.2677C6.26945 12.3325 6.18658 12.3704 6.09899 12.3724L6.09126 12.3726C6.00625 12.3726 5.92467 12.3388 5.86455 12.2787L3.29977 9.7139C3.17654 9.58838 3.17755 9.38701 3.30192 9.26265C3.42629 9.13828 3.62767 9.13727 3.75317 9.2605L6.08024 11.5876L12.2661 4.7832C12.3231 4.7195 12.4032 4.68129 12.4885 4.677C12.5738 4.67271 12.6573 4.70262 12.7205 4.76001C12.7837 4.81755 12.8213 4.89784 12.8252 4.98314C12.8289 5.06844 12.7984 5.15188 12.7404 5.21457L12.7404 5.21451Z" fill="#E1FF3C"/>
</svg>
