<svg width="27" height="26" viewBox="0 0 27 26" fill="none" xmlns="http://www.w3.org/2000/svg">
<path d="M13.5654 2.1665L17.3571 9.20817L24.9404 10.2915L19.5238 15.7082L20.6071 23.8332L13.5654 20.0415L6.52376 23.8332L7.6071 15.7082L2.19043 10.2915L9.77376 9.20817L13.5654 2.1665Z" fill="#FFCA28"/>
<path d="M13.5654 13.5415L17.3571 9.20817L13.5654 2.1665V13.5415Z" fill="#F9A825"/>
<path d="M24.9404 10.2915L13.5654 13.5415L19.5238 15.7082L24.9404 10.2915Z" fill="#F9A825"/>
<path d="M20.6071 23.8332L13.5654 13.5415V20.0415L20.6071 23.8332Z" fill="#F9A825"/>
<path d="M7.60726 15.7082L6.52393 23.8332L13.5656 13.5415L7.60726 15.7082Z" fill="#F9A825"/>
<path d="M2.19043 10.2913L13.5654 13.5413L9.77376 9.20801L2.19043 10.2913Z" fill="#F9A825"/>
</svg>
