<svg width="20" height="15" viewBox="0 0 20 15" fill="none" xmlns="http://www.w3.org/2000/svg">
<path d="M6.34106e-09 4.27L9.68546 8.8875C9.78261 8.93381 9.8905 8.95798 10 8.95798C10.1095 8.95798 10.2174 8.93381 10.3145 8.8875L20 4.27083V12.2917C20 12.9834 19.7113 13.649 19.193 14.1519C18.6747 14.6547 17.9662 14.9567 17.2127 14.9958L17.0455 15H2.95455C2.19987 15 1.47379 14.7354 0.925245 14.2603C0.376697 13.7852 0.0472715 13.1357 0.00454557 12.445L6.34106e-09 12.2917V4.27ZM2.95455 5.73727e-09H17.0455C17.8001 -4.49943e-05 18.5262 0.264628 19.0748 0.73973C19.6233 1.21482 19.9527 1.86433 19.9955 2.555L20 2.70833V2.86167L10 7.62833L6.34106e-09 2.86167V2.70833C-4.94061e-05 2.01655 0.288686 1.35098 0.806974 0.84814C1.32526 0.345306 2.03381 0.043332 2.78727 0.00416703L2.95455 5.73727e-09H17.0455H2.95455Z" fill="black"/>
</svg>
